<svg width="175" height="124" viewBox="0 0 175 124" fill="none" xmlns="http://www.w3.org/2000/svg">
<path d="M58.9285 48.3828C67.7387 47.3891 72.2243 46.8153 81.3214 45.5067C81.5449 43.6937 81.6477 41.868 81.6293 40.0414C73.085 40.2653 68.8444 40.3423 60.44 40.4403C58.4526 41.434 57.4589 41.9168 55.4646 42.8615C55.9915 44.4876 56.4077 46.1476 56.7102 47.83L58.9285 48.3828Z" fill="white"/>
<path d="M59.5093 49.0826C69.0123 48.2008 73.8618 47.683 83.7007 46.4584L83.0009 45.5977C73.204 46.8853 68.3755 47.4381 58.9075 48.3968L59.5093 49.0826Z" fill="#A67E53"/>
<path d="M59.9432 48.3058C59.9432 48.3058 58.1097 45.8846 60.7409 43.4073C68.9913 42.6376 73.169 42.1967 81.6293 41.196C81.6293 40.7202 81.6293 40.4963 81.6293 40.0064C71.7764 40.9511 66.906 41.308 57.298 42.0078C57.081 43.2954 56.9551 43.9392 56.6542 45.2198C57.102 46.5214 57.312 47.1652 57.6549 48.4668L59.9432 48.3058Z" fill="#D0D1D2"/>
<path d="M35.1639 35.7098C45.3597 38.3549 50.2862 39.7685 59.7472 42.7076C69.3342 41.7699 74.2047 41.217 84.0576 39.9574C74.2607 36.8154 69.1663 35.3249 58.6136 32.5398C49.1176 34.0093 44.422 34.6391 35.1639 35.7098Z" fill="#C49A6C"/>
<path d="M59.7542 42.7496C59.7542 42.7496 56.4652 46.1365 59.5443 49.0476C50.2442 45.9056 45.3807 44.415 35.2829 41.5809C35.2829 41.5809 31.952 38.6698 35.1639 35.6888C45.3597 38.3689 50.2932 39.7825 59.7542 42.7496Z" fill="#A67E53"/>
<path d="M63.2391 40.5522C72.0493 39.5586 76.5349 38.9847 85.6321 37.6761C85.8558 35.8632 85.9587 34.0374 85.94 32.2109C77.3957 32.4348 73.155 32.5118 64.7506 32.6097C62.7773 33.6104 61.7836 34.0863 59.7892 35.01C60.3095 36.6388 60.7187 38.3011 61.0138 39.9854L63.2391 40.5522Z" fill="white"/>
<path d="M63.8549 41.252C73.3579 40.3703 78.2074 39.8525 88.0463 38.6279L87.3465 37.7671C77.5496 39.0547 72.7211 39.6075 63.2531 40.5662L63.8549 41.252Z" fill="#A5A8AB"/>
<path d="M64.2538 40.4473C64.2538 40.4473 62.4134 38.054 65.0515 35.5978C73.3019 34.828 77.4796 34.3872 85.94 33.3935C85.94 32.9176 85.94 32.6937 85.94 32.2039C76.0731 33.1206 71.2026 33.5125 61.5946 34.1633C61.3777 35.4509 61.2517 36.0946 60.9508 37.3752C61.3987 38.6768 61.6086 39.3206 61.9585 40.6222L64.2538 40.4473Z" fill="#D0D1D2"/>
<path d="M39.4746 27.8932C49.6704 30.5384 54.5968 31.952 64.0579 34.891C73.6448 33.9533 78.5153 33.4005 88.3682 32.1409C78.5713 28.9989 73.4769 27.5084 62.9242 24.7232C53.4282 26.1858 48.7257 26.8086 39.4746 27.8932Z" fill="#BBBCBE"/>
<path d="M64.0579 34.926C64.0579 34.926 60.7689 38.3129 63.8479 41.224C54.5478 38.11 49.7124 36.6195 39.5936 33.7854C39.5936 33.7854 36.2626 30.8743 39.4746 27.8932C49.6704 30.5454 54.6108 31.9519 64.0579 34.926Z" fill="#A5A8AB"/>
<path d="M59.3833 32.9946C68.1936 32.0009 72.6792 31.4271 81.7763 30.1185C82.0004 28.3056 82.1032 26.4798 82.0842 24.6532C73.5399 24.8772 69.2992 24.9541 60.8949 25.0521C58.9075 26.0458 57.9138 26.5287 55.9264 27.4734C56.4462 29.1024 56.8553 30.7646 57.151 32.4488L59.3833 32.9946Z" fill="white"/>
<path d="M59.9921 33.6944C69.4951 32.8127 74.3516 32.2948 84.1835 31.0702L83.4837 30.2095C73.6868 31.4971 68.8583 32.0499 59.3903 33.0086L59.9921 33.6944Z" fill="#276B8C"/>
<path d="M60.391 32.9106C60.391 32.9106 58.5576 30.4964 61.1888 28.0122C69.4392 27.2424 73.6238 26.8016 82.0772 25.8079C82.0772 25.332 82.0772 25.1081 82.0772 24.6183C72.2103 25.535 67.3398 25.9268 57.7318 26.5776C57.5149 27.8652 57.389 28.509 57.0881 29.7896C57.5429 31.0912 57.7458 31.735 58.0957 33.0366L60.391 32.9106Z" fill="#D0D1D2"/>
<path d="M35.6188 20.3146C45.8146 22.9598 50.741 24.3733 60.2021 27.3124C69.7891 26.3747 74.6595 25.8219 84.5124 24.5623C74.7155 21.4203 69.6211 19.9297 59.0684 17.1446C49.5724 18.6281 44.8699 19.2509 35.6188 20.3146Z" fill="#56A3DA"/>
<path d="M60.2091 27.3684C60.2091 27.3684 56.9201 30.7553 59.9991 33.6664C50.6921 30.5594 45.8286 29.0619 35.7168 26.2277C35.7168 26.2277 32.3858 23.3167 35.6048 20.3356C45.8076 22.9878 50.741 24.3943 60.2091 27.3684Z" fill="#276B8C"/>
<path d="M57.8298 24.1214C66.64 23.1277 71.1256 22.5539 80.2228 21.2453C80.4465 19.4324 80.5494 17.6066 80.5307 15.78C71.9864 16.004 67.7457 16.0809 59.3413 16.1789C57.354 17.1726 56.3603 17.6554 54.3729 18.6002C54.8953 20.2289 55.3068 21.8912 55.6045 23.5756L57.8298 24.1214Z" fill="white"/>
<path d="M58.4456 24.8282C67.9486 23.9465 72.7981 23.4286 82.637 22.204L81.9372 21.3433C72.1403 22.6309 67.3118 23.1837 57.8438 24.1424L58.4456 24.8282Z" fill="#D7BA6F"/>
<path d="M58.8445 24.0234C58.8445 24.0234 57.0041 21.6302 59.6422 19.174C67.9067 18.4042 72.1053 17.9633 80.5027 16.9627C80.5027 16.4868 80.5027 16.2629 80.5027 15.773C70.7058 16.6897 65.8073 17.0816 56.1993 17.7324C55.9824 19.027 55.8564 19.6638 55.5555 20.9444C56.0104 22.239 56.2133 22.8898 56.5632 24.1914L58.8445 24.0234Z" fill="#D0D1D2"/>
<path d="M34.0653 11.4694C44.2611 14.1146 49.1875 15.5281 58.6486 18.4672C68.2355 17.5295 73.106 16.9767 82.9589 15.7171C73.162 12.575 68.0676 11.0845 57.5149 8.29939C48.0189 9.75493 43.3234 10.3847 34.0653 11.4694Z" fill="#FFDE7F"/>
<path d="M58.6486 18.4952C58.6486 18.4952 55.3596 21.8821 58.4386 24.7932C49.1385 21.7142 44.2751 20.1886 34.1843 17.3615C34.1843 17.3615 30.8533 14.4505 34.0653 11.4694C44.2611 14.1146 49.1945 15.5211 58.6486 18.4952Z" fill="#D7BA6F"/>
<path d="M160.956 18.7891L173.287 19.2299L171.586 43.3654" stroke="#935323" stroke-width="1.36" stroke-miterlimit="10"/>
<path d="M159.095 79.0961C158.493 83.6167 156.45 87.0106 154.525 86.6748C152.601 86.3389 151.53 82.3991 152.132 77.8785C152.734 73.3579 154.777 69.964 156.702 70.2999C158.626 70.6358 159.697 74.5616 159.095 79.0961Z" fill="#DB9E37"/>
<path d="M0.783752 64.4007C0.783752 64.4007 16.1789 62.0985 16.0949 60.7689C16.011 59.4393 22.099 71.5175 22.099 71.5175L10.3497 72.0074L0.783752 64.4007Z" fill="#767EAD"/>
<path d="M29.0129 84.9813C37.8231 83.9876 42.3087 83.4138 51.4058 82.1052C51.6301 80.2923 51.7329 78.4665 51.7137 76.6399C43.1694 76.8638 38.9288 76.9408 30.5244 77.0388C28.537 78.0325 27.5503 78.5153 25.549 79.46C26.0716 81.0887 26.4831 82.751 26.7806 84.4354L29.0129 84.9813Z" fill="white"/>
<path d="M29.6217 85.6811C39.1247 84.7993 43.9742 84.2815 53.8131 83.0569L53.1133 82.1961C43.3164 83.4837 38.4879 84.0366 29.0199 84.9953L29.6217 85.6811Z" fill="#276B8C"/>
<path d="M30.0276 84.8763C30.0276 84.8763 28.1871 82.4831 30.8183 80.0268C39.0687 79.2641 43.2534 78.8232 51.7067 77.8225C51.7067 77.3467 51.7067 77.1227 51.7067 76.6329C41.8398 77.5496 36.9694 77.9415 27.3614 78.5923C27.1445 79.8799 27.0185 80.5237 26.7176 81.8043C27.1725 83.0989 27.3754 83.7497 27.7253 85.0512L30.0276 84.8763Z" fill="#D0D1D2"/>
<path d="M5.24835 72.3223C15.4441 74.9674 20.3706 76.381 29.8316 79.3201C39.4186 78.3824 44.2891 77.8295 54.142 76.5699C44.3451 73.4279 39.2507 71.9374 28.698 69.1522C19.202 70.6148 14.4994 71.2376 5.24835 72.3223Z" fill="#56A3DA"/>
<path d="M29.8316 79.355C29.8316 79.355 26.5427 82.742 29.6217 85.6531C20.3216 82.5111 15.4581 81.0205 5.36032 78.1864C5.36032 78.1864 2.02937 75.2753 5.24136 72.2943C15.4232 74.9744 20.3706 76.381 29.8316 79.355Z" fill="#276B8C"/>
<path d="M34.3172 78.1304C43.1274 77.1367 47.613 76.5629 56.7102 75.2543C56.9342 73.4414 57.037 71.6156 57.0181 69.789C48.4738 70.013 44.2331 70.09 35.8287 70.1879C33.8414 71.1816 32.8547 71.6645 30.8603 72.6092C31.3806 74.238 31.7897 75.9003 32.0849 77.5846L34.3172 78.1304Z" fill="white"/>
<path d="M34.912 78.8372C44.415 77.9555 49.2645 77.4377 59.1034 76.213L58.4036 75.3523C48.6067 76.6399 43.7782 77.1927 34.3102 78.1514L34.912 78.8372Z" fill="#D7BA6F"/>
<path d="M35.3109 78.0325C35.3109 78.0325 33.4705 75.6392 36.1086 73.183C44.3591 72.4202 48.5367 71.9724 56.9971 70.9787C56.9971 70.5028 56.9971 70.2789 56.9971 69.789C47.1302 70.7058 42.2527 71.0976 32.6517 71.7484C32.4348 73.036 32.3088 73.6798 32.0009 74.9604C32.4558 76.255 32.6587 76.9058 33.0086 78.2074L35.3109 78.0325Z" fill="#D0D1D2"/>
<path d="M10.5247 65.4784C20.7205 68.1236 25.6469 69.5371 35.108 72.4762C44.6949 71.5385 49.5654 70.9927 59.4183 69.7261C49.6214 66.5841 44.527 65.0935 33.9743 62.3084C24.5203 63.7639 19.7898 64.4007 10.5247 65.4784Z" fill="#FFDE7F"/>
<path d="M35.122 72.5042C35.122 72.5042 31.833 75.8911 34.912 78.8022C25.6119 75.6952 20.7485 74.1977 10.6507 71.3985C10.6507 71.3985 7.3197 68.4875 10.5387 65.5064C20.7275 68.1236 25.6609 69.5371 35.122 72.5042Z" fill="#D7BA6F"/>
<path d="M30.3285 69.5721C39.1387 68.5784 43.6243 68.0046 52.7214 66.696C52.9452 64.8831 53.048 63.0573 53.0293 61.2307C44.485 61.4547 40.2443 61.5316 31.84 61.6296C29.8526 62.6233 28.8589 63.1062 26.8645 64.0509C27.3871 65.6796 27.7986 67.3419 28.0962 69.0263L30.3285 69.5721Z" fill="white"/>
<path d="M30.9373 70.2789C40.4403 69.3972 45.2898 68.8793 55.1287 67.6547L54.4289 66.794C44.632 68.0816 39.8035 68.6344 30.3355 69.5931L30.9373 70.2789Z" fill="#BE202E"/>
<path d="M31.3361 69.4742C31.3361 69.4742 29.4957 67.0809 32.1339 64.6247C40.3843 63.8619 44.569 63.4141 53.0223 62.4204C53.0223 61.9445 53.0223 61.7206 53.0223 61.2307C43.1554 62.1475 38.285 62.5393 28.677 63.1901C28.4601 64.4847 28.3341 65.1215 28.0332 66.4021C28.488 67.6967 28.691 68.3475 29.0409 69.6491L31.3361 69.4742Z" fill="#D0D1D2"/>
<path d="M6.56393 56.9201C16.7597 59.5653 21.6862 60.9788 31.1472 63.9179C40.7342 62.9802 45.6047 62.4274 55.4576 61.1678C45.6606 58.0257 40.5662 56.5352 30.0136 53.7501C20.5175 55.2056 15.815 55.8354 6.56393 56.9201Z" fill="#EE4037"/>
<path d="M31.1472 63.9459C31.1472 63.9459 27.8582 67.3328 30.9373 70.2439C21.6372 67.1089 16.7737 65.6114 6.6759 62.7773C6.6759 62.7773 3.34495 59.8662 6.55694 56.8851C16.7527 59.5653 21.7212 60.9718 31.1472 63.9459Z" fill="#BE202E"/>
<path d="M31.5181 60.9018C40.3283 59.9082 44.8139 59.3343 53.911 58.0258C54.1352 56.2129 54.2381 54.3871 54.219 52.5605C45.6746 52.7844 41.434 52.8614 33.0296 52.9593C31.0422 53.953 30.0485 54.4359 28.0542 55.3806C28.5749 57.0093 28.9841 58.6717 29.2788 60.356L31.5181 60.9018Z" fill="white"/>
<path d="M32.1339 61.6016C41.6439 60.7199 46.4864 60.2021 56.3253 58.9775L55.6255 58.1167C45.8286 59.4043 41.0001 59.9571 31.5321 60.9158L32.1339 61.6016Z" fill="#5C9240"/>
<path d="M32.5328 60.7689C32.5328 60.7689 30.6924 58.3756 33.3305 55.9194C41.5809 55.1497 45.7586 54.7088 54.219 53.7151C54.219 53.2393 54.219 53.0153 54.219 52.5255C44.3521 53.4422 39.4816 53.8341 29.8736 54.4849C29.6567 55.7725 29.5307 56.4163 29.2298 57.6969C29.6847 58.9914 29.8876 59.6422 30.2375 60.9438L32.5328 60.7689Z" fill="#D0D1D2"/>
<path d="M7.72557 48.2148C17.9214 50.86 22.8478 52.2736 32.3088 55.2126C41.8958 54.2749 46.7663 53.7291 56.6192 52.4625C46.8223 49.3205 41.7279 47.83 31.1752 45.0448C21.7212 46.5004 17.0047 47.1302 7.72557 48.2148Z" fill="#80C247"/>
<path d="M32.3368 55.2406C32.3368 55.2406 29.0479 58.6276 32.1269 61.5386C22.8268 58.3966 17.9633 56.9061 7.86552 54.072C7.86552 54.072 4.53457 51.1609 7.74656 48.1798C17.9494 50.86 22.8828 52.2666 32.3368 55.2406Z" fill="#5C9240"/>
<path d="M28.761 51.6228C37.5712 50.6291 42.0568 50.0553 51.1539 48.7467C51.3777 46.9338 51.4805 45.108 51.4618 43.2814C42.9175 43.5053 38.6768 43.5823 30.2725 43.6803C28.2851 44.6739 27.2914 45.1568 25.297 46.1015C25.8232 47.7392 26.237 49.4109 26.5357 51.1049L28.761 51.6228Z" fill="white"/>
<path d="M29.3698 52.3295C38.8728 51.4478 43.7222 50.93 53.5612 49.7054L52.8614 48.8446C43.0645 50.1322 38.236 50.6851 28.768 51.6438L29.3698 52.3295Z" fill="#D7BA6F"/>
<path d="M29.7756 51.5248C29.7756 51.5248 27.9352 49.1315 30.5734 46.6753C38.8238 45.9126 43.0085 45.4647 51.4618 44.471C51.4618 43.9952 51.4618 43.7712 51.4618 43.2814C41.5949 44.1981 36.7175 44.59 27.1165 45.2338C26.8995 46.5284 26.7736 47.1652 26.4727 48.4458C26.9275 49.7404 27.1305 50.3911 27.4804 51.6927L29.7756 51.5248Z" fill="#D0D1D2"/>
<path d="M4.99643 38.9707C15.1922 41.6159 20.1187 43.0295 29.5797 45.9685C39.1667 45.0308 44.0372 44.485 53.8901 43.2184C44.0931 40.0764 38.9987 38.5859 28.4461 35.8007C18.9221 37.2563 14.2475 37.8861 4.99643 38.9707Z" fill="#FFDE7F"/>
<path d="M29.5797 45.9965C29.5797 45.9965 26.2907 49.3835 29.3698 52.2946C20.0697 49.1525 15.2062 47.662 5.10839 44.8279C5.10839 44.8279 1.77744 41.9168 4.99643 38.9358C15.1922 41.6159 20.1187 43.0225 29.5797 45.9965Z" fill="#D7BA6F"/>
<path d="M136.485 11.2874L94.8902 1.09865C94.8902 1.09865 89.7118 93.0917 89.4669 92.9658C89.2219 92.8398 131.769 77.8295 131.769 77.8295L136.485 11.2874Z" fill="#575D7E"/>
<path d="M99.7116 89.2569C108.522 88.2632 113.007 87.6894 122.105 86.3738C122.328 84.5609 122.431 82.7351 122.412 80.9086C113.868 81.1325 109.628 81.2095 101.223 81.3144C99.2358 82.3081 98.2421 82.791 96.2477 83.7357C96.7684 85.3644 97.1776 87.0268 97.4723 88.7111L99.7116 89.2569Z" fill="white"/>
<path d="M100.32 89.9567C109.83 89.075 114.68 88.5572 124.512 87.3325L123.812 86.4718C114.015 87.7594 109.187 88.3122 99.7186 89.2709L100.32 89.9567Z" fill="#A5A8AB"/>
<path d="M100.726 89.152C100.726 89.152 98.8859 86.7587 101.524 84.3025C109.774 83.5327 113.952 83.0919 122.413 82.0982C122.413 81.6223 122.413 81.3984 122.413 80.9086C112.546 81.8253 107.675 82.2171 98.0672 82.8679C97.8502 84.1625 97.7243 84.7993 97.4234 86.0799C97.8782 87.3745 98.0811 88.0253 98.431 89.3269L100.726 89.152Z" fill="#D0D1D2"/>
<path d="M75.9471 76.5979C86.1429 79.2431 91.0764 80.6566 100.53 83.5957C110.117 82.658 114.988 82.1052 124.841 80.8456C115.044 77.7036 109.949 76.213 99.3967 73.4279C89.9007 74.8974 85.1982 75.5132 75.9471 76.5979Z" fill="#BBBCBE"/>
<path d="M100.53 83.6237C100.53 83.6237 97.2414 87.0106 100.32 89.9217C90.9994 86.7937 86.1569 85.3242 76.0661 82.4901C76.0661 82.4901 72.7351 79.579 75.9471 76.5979C86.1429 79.2431 91.0694 80.6566 100.53 83.6237Z" fill="#A5A8AB"/>
<path d="M100.88 81.4544C109.69 80.4607 114.176 79.8869 123.273 78.5783C123.497 76.7654 123.6 74.9396 123.581 73.113C115.037 73.3369 110.796 73.4139 102.392 73.5119C100.404 74.5056 99.4177 74.9884 97.4234 75.9331C97.9437 77.5643 98.3528 79.229 98.648 80.9156L100.88 81.4544Z" fill="white"/>
<path d="M101.496 82.1542C110.999 81.2724 115.849 80.7546 125.687 79.53L124.988 78.6693C115.191 79.9569 110.362 80.5097 100.894 81.4684L101.496 82.1542Z" fill="#BE202E"/>
<path d="M101.895 81.3494C101.895 81.3494 100.055 78.9562 102.693 76.4999C110.943 75.7302 115.128 75.2893 123.581 74.2886C123.581 73.8128 123.581 73.5889 123.581 73.099C113.714 74.0157 108.844 74.4076 99.2358 75.0514C99.0189 76.339 98.8859 76.9828 98.585 78.2634C99.0398 79.558 99.2428 80.2088 99.5927 81.5104L101.895 81.3494Z" fill="#D0D1D2"/>
<path d="M77.1158 68.7954C87.3115 71.4405 92.238 72.8541 101.699 75.7932C111.293 74.8974 116.149 74.3376 125.988 73.078C116.191 69.936 111.097 68.4455 100.544 65.6604C91.0694 67.0879 86.3668 67.7107 77.1158 68.7954Z" fill="#EE4037"/>
<path d="M101.699 75.8282C101.699 75.8282 98.4101 79.2151 101.489 82.1262C92.189 78.9842 87.3255 77.4866 77.2277 74.6595C77.2277 74.6595 73.8968 71.7484 77.1088 68.7674C87.3115 71.4475 92.238 72.8541 101.699 75.8282Z" fill="#BE202E"/>
<path d="M102.378 75.2403C111.188 74.2467 115.674 73.6728 124.771 72.3572C124.994 70.5443 125.097 68.7185 125.079 66.892C116.534 67.1159 112.294 67.1929 103.889 67.2978C101.902 68.2915 100.915 68.7744 98.9209 69.7191C99.4409 71.348 99.85 73.0103 100.146 74.6945L102.378 75.2403Z" fill="white"/>
<path d="M102.994 75.9401C112.497 75.0584 117.353 74.5406 127.185 73.3159L126.485 72.4552C116.688 73.7428 111.86 74.2956 102.392 75.2543L102.994 75.9401Z" fill="#276B8C"/>
<path d="M103.392 75.1354C103.392 75.1354 101.552 72.7421 104.19 70.2859C112.441 69.5161 116.618 69.0753 125.079 68.0816C125.079 67.6057 125.079 67.3818 125.079 66.892C115.212 67.8087 110.341 68.2006 100.733 68.8513C100.516 70.1459 100.39 70.7827 100.09 72.0633C100.544 73.3579 100.747 74.0087 101.097 75.3103L103.392 75.1354Z" fill="#D0D1D2"/>
<path d="M78.6133 62.5813C88.8091 65.2265 93.7355 66.64 103.197 69.5791C112.784 68.6414 117.654 68.0886 127.507 66.829C117.71 63.687 112.616 62.1964 102.063 59.4113C92.5669 60.9018 87.8714 61.4967 78.6133 62.5813Z" fill="#56A3DA"/>
<path d="M103.197 69.6071C103.197 69.6071 99.9076 72.994 102.987 75.9051C93.6865 72.7631 88.8231 71.2726 78.7252 68.4385C78.7252 68.4385 75.3943 65.5274 78.6063 62.5463C88.8091 65.2265 93.7425 66.64 103.197 69.6071Z" fill="#276B8C"/>
<path d="M99.2988 66.759C108.109 65.7653 112.595 65.1915 121.692 63.8829C121.915 62.07 122.018 60.2442 122 58.4176C113.455 58.6416 109.215 58.7185 100.81 58.8165C98.8229 59.8102 97.8362 60.293 95.8419 61.2377C96.3647 62.8664 96.7762 64.5287 97.0735 66.2132L99.2988 66.759Z" fill="white"/>
<path d="M99.9146 67.4588C109.418 66.5771 114.267 66.0592 124.106 64.8346L123.406 63.9739C113.609 65.2615 108.781 65.8143 99.3128 66.773L99.9146 67.4588Z" fill="#A67E53"/>
<path d="M100.313 66.654C100.313 66.654 98.473 64.2608 101.111 61.8046C109.362 61.0348 113.546 60.5939 122 59.6003C122 59.1244 122 58.9005 122 58.4106C112.133 59.3273 107.262 59.7192 97.6543 60.37C97.4374 61.6646 97.3114 62.3014 97.0105 63.582C97.4653 64.8836 97.6683 65.5274 98.0182 66.829L100.313 66.654Z" fill="#D0D1D2"/>
<path d="M75.5342 54.1C85.73 56.7452 90.6565 58.1587 100.118 61.0978C109.705 60.1601 114.575 59.6073 124.428 58.3476C114.631 55.2056 109.537 53.7151 98.9839 50.93C89.4879 52.3925 84.7923 53.0153 75.5342 54.1Z" fill="#C49A6C"/>
<path d="M100.097 61.1328C100.097 61.1328 96.8076 64.5197 99.8866 67.4308C90.5865 64.2888 85.723 62.7983 75.6252 59.9641C75.6252 59.9641 72.2943 57.0531 75.5063 54.072C85.73 56.7522 90.6635 58.1587 100.097 61.1328Z" fill="#A67E53"/>
<path d="M101.223 60.1041C110.033 59.1104 114.519 58.5366 123.616 57.221C123.84 55.4081 123.943 53.5823 123.924 51.7557C115.38 51.9797 111.139 52.0566 102.735 52.1546C100.747 53.1483 99.7536 53.6311 97.7663 54.5758C98.2858 56.2049 98.6949 57.8672 98.9909 59.5513L101.223 60.1041Z" fill="white"/>
<path d="M101.832 60.8039C111.342 59.9222 116.184 59.4043 126.023 58.1797L125.324 57.319C115.527 58.6066 110.705 59.1594 101.23 60.1181L101.832 60.8039Z" fill="#276B8C"/>
<path d="M102.238 59.9991C102.238 59.9991 100.397 57.6059 103.036 55.1497C111.286 54.3799 115.471 53.939 123.924 52.9384C123.924 52.4625 123.924 52.2386 123.924 51.7487C114.057 52.6654 109.187 53.0573 99.5787 53.7011C99.3617 54.9957 99.2358 55.6395 98.9349 56.9131C99.3897 58.2077 99.5927 58.8585 99.9426 60.1601L102.238 59.9991Z" fill="#D0D1D2"/>
<path d="M77.4586 47.4451C87.6544 50.0902 92.5809 51.5038 102.042 54.4429C111.629 53.5052 116.499 52.9523 126.352 51.6927C116.555 48.5507 111.461 47.0602 100.908 44.2751C91.4123 45.7306 86.7097 46.3604 77.4586 47.4451Z" fill="#56A3DA"/>
<path d="M102.042 54.4709C102.042 54.4709 98.7529 57.8578 101.832 60.7689C92.5319 57.6269 87.6684 56.1363 77.5706 53.3022C77.5706 53.3022 74.2397 50.3912 77.4516 47.4101C87.6544 50.0902 92.5809 51.5038 102.042 54.4709Z" fill="#276B8C"/>
<path d="M105.8 52.2946C114.61 51.3009 119.096 50.727 128.193 49.4185C128.417 47.6056 128.52 45.7798 128.501 43.9532C119.956 44.1771 115.716 44.2541 107.311 44.352C105.324 45.3457 104.33 45.8286 102.343 46.7733C102.862 48.4024 103.271 50.0646 103.567 51.7487L105.8 52.2946Z" fill="white"/>
<path d="M106.395 53.0013C115.905 52.1196 120.747 51.6018 130.586 50.3772L129.886 49.5164C120.089 50.804 115.261 51.3569 105.793 52.3155L106.395 53.0013Z" fill="#5C9240"/>
<path d="M106.814 52.1896C106.814 52.1896 104.974 49.7963 107.612 47.3401C115.863 46.5704 120.047 46.1295 128.501 45.1288C128.501 44.653 128.501 44.429 128.501 43.9392C118.634 44.8559 113.763 45.2478 104.155 45.8986C103.938 47.1862 103.812 47.83 103.511 49.1106C103.966 50.4051 104.169 51.0559 104.519 52.3575L106.814 52.1896Z" fill="#D0D1D2"/>
<path d="M82.0352 39.6425C92.231 42.2877 97.1575 43.7013 106.618 46.6403C116.205 45.7026 121.076 45.1498 130.929 43.8902C121.132 40.7482 116.038 39.2577 105.485 36.4725C95.9888 37.9281 91.2863 38.5579 82.0352 39.6425Z" fill="#80C247"/>
<path d="M106.618 46.6683C106.618 46.6683 103.33 50.0553 106.409 52.9663C97.1085 49.8243 92.245 48.3338 82.1472 45.4997C82.1472 45.4997 78.8162 42.5886 82.0282 39.6075C92.231 42.2877 97.1575 43.6943 106.618 46.6683Z" fill="#5C9240"/>
<path d="M101.216 43.4563C110.026 42.4626 114.512 41.8888 123.609 40.5802C123.833 38.7673 123.936 36.9415 123.917 35.115C115.373 35.3389 111.132 35.4159 102.728 35.5138C100.74 36.5075 99.7466 36.9904 97.7593 37.9351C98.2819 39.5661 98.6934 41.2308 98.9909 42.9175L101.216 43.4563Z" fill="white"/>
<path d="M101.825 44.1561C111.328 43.2744 116.177 42.7566 126.016 41.5319L125.317 40.6712C115.52 41.9588 110.691 42.5116 101.223 43.4703L101.825 44.1561Z" fill="#D7BA6F"/>
<path d="M102.196 43.3514C102.196 43.3514 100.355 40.9581 102.987 38.5019C111.293 37.7391 115.457 37.2983 123.889 36.2976C123.889 35.8217 123.889 35.5978 123.889 35.108C114.092 36.0247 109.194 36.4095 99.5787 37.0673C99.3617 38.3549 99.2358 38.9987 98.9349 40.2793C99.3897 41.5739 99.5927 42.2247 99.9426 43.5263L102.196 43.3514Z" fill="#D0D1D2"/>
<path d="M77.4516 30.8113C87.6474 33.4565 92.5739 34.87 102.035 37.8091C111.622 36.8714 116.492 36.3186 126.345 35.059C116.548 31.917 111.454 30.4264 100.901 27.6413C91.4053 29.0899 86.7027 29.7127 77.4516 30.8113Z" fill="#FFDE7F"/>
<path d="M102.035 37.8091C102.035 37.8091 98.7459 41.196 101.825 44.1071C92.5249 40.9651 87.6614 39.4746 77.5636 36.6405C77.5636 36.6405 74.2327 33.7294 77.4446 30.7483C87.6474 33.4495 92.5739 34.856 102.035 37.8091Z" fill="#D7BA6F"/>
<path d="M106.933 35.9687C115.744 34.975 120.229 34.4012 129.326 33.0926C129.55 31.2796 129.652 29.4539 129.634 27.6273C121.09 27.8512 116.849 27.9282 108.445 28.0262C106.458 29.0199 105.464 29.5027 103.476 30.4474C103.996 32.0764 104.406 33.7386 104.701 35.4229L106.933 35.9687Z" fill="white"/>
<path d="M107.549 36.6755C117.052 35.7937 121.902 35.2759 131.741 34.0513L131.041 33.1906C121.244 34.4782 116.415 35.031 106.947 35.9897L107.549 36.6755Z" fill="#BE202E"/>
<path d="M107.948 35.8707C107.948 35.8707 106.108 33.4775 108.746 31.0212C116.996 30.2515 121.181 29.8106 129.634 28.8099C129.634 28.3341 129.634 28.1102 129.634 27.6203C119.767 28.537 114.89 28.9289 105.289 29.5727C105.072 30.8603 104.939 31.5041 104.645 32.7847C105.1 34.0793 105.303 34.7301 105.653 36.0317L107.948 35.8707Z" fill="#D0D1D2"/>
<path d="M83.1688 23.3167C93.3646 25.9618 98.2911 27.3754 107.752 30.3145C117.339 29.3768 122.21 28.8309 132.062 27.5643C122.266 24.4223 117.171 22.9318 106.618 20.1467C97.1225 21.6022 92.3989 22.232 83.1688 23.3167Z" fill="#EE4037"/>
<path d="M107.752 30.3425C107.752 30.3425 104.463 33.7294 107.542 36.6405C98.2421 33.5335 93.3786 32.0359 83.3018 29.2018C83.3018 29.2018 79.9709 26.2907 83.1828 23.3097C93.3646 25.9618 98.2981 27.3684 107.752 30.3425Z" fill="#BE202E"/>
<path d="M101.741 25.535C110.551 24.5413 115.037 23.9675 124.134 22.6589C124.358 20.8459 124.46 19.0202 124.442 17.1936C115.898 17.4175 111.657 17.4945 103.253 17.5925C101.265 18.5862 100.271 19.069 98.2771 20.0137C98.7994 21.6425 99.2109 23.3048 99.5087 24.9891L101.741 25.535Z" fill="white"/>
<path d="M102.35 26.2417C111.853 25.36 116.709 24.8422 126.541 23.6176L125.841 22.7568C116.044 24.0444 111.216 24.5973 101.748 25.556L102.35 26.2417Z" fill="#062A4E"/>
<path d="M102.756 25.437C102.756 25.437 100.915 23.0438 103.553 20.5875C111.804 19.8248 115.989 19.3839 124.442 18.3832C124.442 17.9074 124.442 17.6834 124.442 17.1936C114.575 18.1103 109.704 18.5022 100.097 19.153C99.8796 20.4406 99.7536 21.0844 99.4527 22.365C99.9076 23.6666 100.111 24.3104 100.46 25.6119L102.756 25.437Z" fill="#D0D1D2"/>
<path d="M77.9765 12.8829C88.1723 15.5281 93.0987 16.9417 102.56 19.8807C112.147 18.943 117.017 18.3902 126.87 17.1306C117.073 13.9886 111.979 12.4981 101.426 9.71294C91.9301 11.1685 87.2276 11.7983 77.9765 12.8829Z" fill="#FAAF40"/>
<path d="M102.56 19.9087C102.56 19.9087 99.2708 23.2957 102.35 26.2068C93.0497 23.1137 88.2003 21.6022 78.0884 18.7751C78.0884 18.7751 74.7575 15.864 77.9695 12.8829C88.2003 15.5281 93.0987 16.9417 102.56 19.9087Z" fill="#062A4E"/>
<path d="M149.081 95.541L146.282 95.296C146.282 95.296 151.362 79.53 141.677 77.1577L145.365 74.2536L150.964 74.7435L153.063 79.0331L151.985 90.4466L149.48 95.5759" fill="#767EAD"/>
<path opacity="0.8" d="M160.39 38.187L160.795 24.3453C160.795 24.3453 147.115 21.7142 146.891 21.1963C146.667 20.6785 141.887 34.4502 141.887 34.4502L160.39 38.187Z" fill="#A4DBDF"/>
<path d="M138.214 83.2598L142.874 83.6657L139.795 109.082L135.169 108.627L138.214 83.2598Z" fill="#191818"/>
<path d="M132.055 87.4235C128.857 92.6299 128.522 100.719 131.293 105.429C134.064 110.138 138.906 109.774 142.104 104.568C145.302 99.3617 145.638 91.2723 142.867 86.5628C140.096 81.8533 135.246 82.2171 132.055 87.4235Z" fill="#191818"/>
<path d="M165.309 38.5159L174.91 38.7048L174.245 61.3987L164.651 61.1258L165.309 38.5159Z" fill="#935323"/>
<g style="mix-blend-mode:multiply" opacity="0.1">
<path d="M166.716 38.5439L165.309 38.5159L164.651 61.1258L168.85 60.8669L166.716 38.5439Z" fill="#231F20"/>
</g>
<path d="M136.065 87.7804C132.867 92.9868 132.531 101.076 135.302 105.786C138.074 110.495 142.916 110.131 146.114 104.925C149.312 99.7186 149.648 91.6292 146.877 86.9197C144.106 82.2101 139.284 82.595 136.065 87.7804Z" fill="#404041"/>
<path d="M139.144 93.0287C137.906 95.0441 137.745 98.1721 138.85 100.027C139.956 101.881 141.803 101.713 143.049 99.6976C144.295 97.6823 144.449 94.5543 143.343 92.6998C142.237 90.8454 140.383 90.9924 139.144 93.0287Z" fill="#929497"/>
<path d="M143.035 99.6837C144.281 97.6683 144.435 94.5403 143.343 92.6859C142.251 90.8314 140.39 90.9924 139.144 93.0078C137.899 95.0231 137.745 98.1511 138.836 100.006C139.928 101.86 141.796 101.699 143.035 99.6837Z" fill="#929497"/>
<g style="mix-blend-mode:multiply" opacity="0.4">
<g style="mix-blend-mode:multiply" opacity="0.4">
<path d="M139.284 100.572C140.109 100.461 140.888 100.132 141.544 99.6207C143.105 98.3611 143.287 95.422 142.097 93.6236C141.593 92.9238 140.565 92.049 139.774 92.224C140.964 90.9854 142.461 91.1113 143.371 92.6789C144.442 94.5193 144.309 97.6403 143.063 99.6767C141.943 101.489 140.355 101.783 139.284 100.572Z" fill="#231F20"/>
</g>
</g>
<path d="M89.3409 97.8082L94.0014 98.2141L90.9224 123.63L86.2969 123.175L89.3409 97.8082Z" fill="#191818"/>
<path d="M83.1828 101.979C79.9849 107.185 79.649 115.275 82.4201 119.984C85.1912 124.694 90.0337 124.337 93.2317 119.124C96.4297 113.91 96.7656 105.828 93.9944 101.118C91.2233 96.4087 86.3808 96.7656 83.1828 101.979Z" fill="#191818"/>
<path d="M87.1996 102.329C84.0016 107.535 83.6657 115.625 86.4368 120.334C89.2079 125.044 94.0504 124.687 97.2484 119.473C100.446 114.26 100.796 106.206 97.9972 101.489C95.1981 96.7726 90.3906 97.1225 87.1996 102.329Z" fill="#404041"/>
<path d="M90.2996 107.577C89.061 109.593 88.9 112.721 90.0057 114.575C91.1113 116.429 92.9588 116.261 94.2044 114.246C95.45 112.231 95.6039 109.103 94.4983 107.248C93.3926 105.394 91.5102 105.562 90.2996 107.577Z" fill="#929497"/>
<path d="M94.1624 114.232C95.408 112.217 95.562 109.089 94.4703 107.234C93.3786 105.38 91.5172 105.541 90.2716 107.556C89.026 109.572 88.8721 112.7 89.9637 114.554C91.0554 116.408 92.9238 116.247 94.1624 114.232Z" fill="#929497"/>
<g style="mix-blend-mode:multiply" opacity="0.4">
<g style="mix-blend-mode:multiply" opacity="0.4">
<path d="M90.3836 115.121C91.2085 115.007 91.9885 114.676 92.6439 114.162C94.2044 112.902 94.3863 109.963 93.1967 108.165C92.6928 107.465 91.6642 106.59 90.8734 106.765C92.063 105.527 93.5606 105.653 94.4703 107.22C95.541 109.061 95.408 112.182 94.1624 114.218C93.0987 116.01 91.4822 116.331 90.3836 115.121Z" fill="#231F20"/>
</g>
</g>
<path d="M24.6253 79.1031L29.2858 79.509L26.2068 104.925L21.5812 104.47L24.6253 79.1031Z" fill="#191818"/>
<path d="M18.4672 83.2948C15.2692 88.5012 14.9333 96.5906 17.7044 101.3C20.4756 106.01 25.318 105.646 28.516 100.439C31.714 95.2331 32.0499 87.1436 29.2788 82.4341C26.5077 77.7246 21.6652 78.0605 18.4672 83.2948Z" fill="#191818"/>
<path d="M22.4839 83.6237C19.2859 88.8301 18.95 96.9195 21.7212 101.629C24.4923 106.339 29.3348 105.982 32.5328 100.768C35.7308 95.555 36.0667 87.4725 33.2955 82.763C30.5244 78.0535 25.6749 78.3964 22.4839 83.6237Z" fill="#404041"/>
<path d="M25.556 88.893C24.3173 90.9084 24.1564 94.0364 25.2621 95.8908C26.3677 97.7453 28.2151 97.5773 29.4607 95.562C30.7063 93.5466 30.8603 90.4186 29.7546 88.5642C28.649 86.7097 26.7946 86.8567 25.556 88.893Z" fill="#929497"/>
<path d="M29.4188 95.527C30.6644 93.5116 30.8183 90.3836 29.7267 88.5292C28.635 86.6747 26.7736 86.8357 25.528 88.8511C24.2824 90.8664 24.1284 93.9944 25.2201 95.8489C26.3117 97.7033 28.2081 97.5423 29.4188 95.527Z" fill="#929497"/>
<g style="mix-blend-mode:multiply" opacity="0.4">
<g style="mix-blend-mode:multiply" opacity="0.4">
<path d="M25.6679 96.4157C26.4921 96.3033 27.2719 95.975 27.9282 95.464C29.4887 94.2044 29.6707 91.2653 28.481 89.4669C27.9772 88.7671 26.9555 87.8924 26.1578 88.0673C27.3474 86.8287 28.8379 86.9547 29.7546 88.5222C30.8253 90.3626 30.6924 93.4836 29.4467 95.52C28.3551 97.2904 26.7666 97.6263 25.6679 96.4157Z" fill="#231F20"/>
</g>
</g>
<path d="M62.6443 95.485C71.4545 94.4913 75.9401 93.9175 85.0373 92.6089C85.2614 90.796 85.3643 88.9702 85.3452 87.1436C76.8008 87.3675 72.5602 87.4445 64.1558 87.5425C62.1685 88.5362 61.1748 89.019 59.1804 89.9637C59.7028 91.5925 60.1142 93.2548 60.412 94.9391L62.6443 95.485Z" fill="white"/>
<path d="M63.2601 96.1848C72.7631 95.303 77.6126 94.7852 87.4515 93.5606L86.7517 92.6999C76.9548 93.9874 72.1263 94.5403 62.6583 95.499L63.2601 96.1848Z" fill="#BE202E"/>
<path d="M63.659 95.38C63.659 95.38 61.8186 92.9868 64.4567 90.5305C72.7071 89.7678 76.8918 89.3269 85.3452 88.3262C85.3452 87.8504 85.3452 87.6265 85.3452 87.1366C75.4783 88.0533 70.6078 88.4452 60.9998 89.096C60.7829 90.3836 60.6569 91.0274 60.356 92.308C60.8109 93.6026 61.0138 94.2534 61.3637 95.555L63.659 95.38Z" fill="#D0D1D2"/>
<path d="M38.8798 82.826C49.0756 85.4711 54.002 86.8847 63.463 89.8238C73.05 88.886 77.9205 88.3332 87.7734 87.0736C77.9765 83.9316 72.8821 82.4411 62.3294 79.656C52.8334 81.1185 48.1379 81.7413 38.8798 82.826Z" fill="#EE4037"/>
<path d="M63.463 89.8587C63.463 89.8587 60.1741 93.2457 63.2531 96.1568C53.953 93.0218 49.0896 91.5242 38.9917 88.6901C38.9917 88.6901 35.6608 85.779 38.8728 82.798C49.0756 85.4781 54.009 86.8847 63.463 89.8587Z" fill="#BE202E"/>
<path d="M63.1691 87.3185C71.9794 86.3249 76.465 85.751 85.5621 84.4424C85.7856 82.6295 85.8885 80.8037 85.87 78.9772C77.3257 79.2011 73.085 79.2781 64.6807 79.376C62.6933 80.3697 61.7066 80.8526 59.7122 81.7973C60.2352 83.433 60.6467 85.1023 60.9438 86.7937L63.1691 87.3185Z" fill="white"/>
<path d="M63.7779 88.0253C73.281 87.1436 78.1304 86.6258 87.9693 85.4011L87.2696 84.5404C77.4726 85.828 72.6442 86.3808 63.1761 87.3395L63.7779 88.0253Z" fill="#A67E53"/>
<path d="M64.1768 87.2206C64.1768 87.2206 62.3364 84.8273 64.9746 82.3711C73.225 81.6083 77.4097 81.1675 85.863 80.1668C85.863 79.6909 85.863 79.467 85.863 78.9772C75.9961 79.8939 71.1256 80.2858 61.5177 80.9366C61.3007 82.2311 61.1748 82.8679 60.8739 84.1485C61.3287 85.4431 61.5317 86.0939 61.8815 87.3955L64.1768 87.2206Z" fill="#D0D1D2"/>
<path d="M39.4046 74.6665C49.6004 77.3117 54.5269 78.7252 63.9879 81.6643C73.5749 80.7266 78.4453 80.1738 88.2982 78.9142C78.5013 75.7722 73.4069 74.2816 62.8542 71.4965C53.3582 72.9521 48.6557 73.5819 39.4046 74.6665Z" fill="#C49A6C"/>
<path d="M63.9879 81.6923C63.9879 81.6923 60.6989 85.0792 63.7779 87.9903C54.4779 84.8483 49.6144 83.3508 39.5166 80.5237C39.5166 80.5237 36.1856 77.6126 39.3976 74.6315C49.5934 77.3117 54.5269 78.7252 63.9879 81.6923Z" fill="#A67E53"/>
<path d="M67.4728 79.495C76.283 78.5013 80.7686 77.9275 89.8657 76.6189C90.0897 74.806 90.1926 72.9802 90.1736 71.1536C81.6293 71.3775 77.3887 71.4545 68.9843 71.5525C66.9969 72.5462 66.0032 73.029 64.0089 73.9737C64.5295 75.6025 64.9387 77.2648 65.2335 78.9492L67.4728 79.495Z" fill="white"/>
<path d="M68.0886 80.1948C77.5916 79.3131 82.4411 78.7952 92.28 77.5706L91.5802 76.7099C81.7833 77.9975 76.9548 78.5503 67.4868 79.509L68.0886 80.1948Z" fill="#A5A8AB"/>
<path d="M68.4875 79.39C68.4875 79.39 66.647 76.9968 69.3062 74.5406C77.5566 73.7708 81.7413 73.3299 90.1946 72.3362C90.1946 71.8604 90.1946 71.6365 90.1946 71.1466C80.3277 72.0633 75.4573 72.4552 65.8493 73.106C65.6324 74.3936 65.5064 75.0374 65.1985 76.318C65.6534 77.6196 65.8563 78.2634 66.2062 79.565L68.4875 79.39Z" fill="#D0D1D2"/>
<path d="M43.7083 66.836C53.904 69.4811 58.8305 70.8947 68.2915 73.8338C77.8785 72.8961 82.749 72.3433 92.6019 71.0836C82.805 67.9416 77.7106 66.4511 67.1579 63.666C57.6619 65.1005 52.9663 65.7513 43.7083 66.836Z" fill="#BBBCBE"/>
<path d="M68.2915 73.8618C68.2915 73.8618 65.0026 77.2487 68.0816 80.1598C58.8095 77.0528 53.911 75.5622 43.8272 72.7281C43.8272 72.7281 40.4963 69.817 43.7083 66.836C53.911 69.4811 58.8095 70.8947 68.2915 73.8618Z" fill="#A5A8AB"/>
<path d="M63.617 71.9374C72.4272 70.9437 76.9128 70.3699 86.01 69.0613C86.2337 67.2484 86.3366 65.4226 86.3179 63.596C77.7735 63.8199 73.5329 63.8969 65.1285 63.9949C63.1411 64.9886 62.1545 65.4714 60.1601 66.4161C60.6824 68.0473 61.0939 69.7119 61.3917 71.3985L63.617 71.9374Z" fill="white"/>
<path d="M64.2258 72.6372C73.7288 71.7554 78.5783 71.2376 88.4172 70.013L87.7174 69.1522C77.9205 70.4398 73.092 70.9927 63.624 71.9514L64.2258 72.6372Z" fill="#276B8C"/>
<path d="M64.6317 71.8324C64.6317 71.8324 62.7913 69.4392 65.4294 66.9829C73.6798 66.2202 77.8645 65.7793 86.3179 64.7786C86.3179 64.3028 86.3179 64.0788 86.3179 63.589C76.451 64.5057 71.5805 64.8976 61.9725 65.5484C61.7556 66.843 61.6296 67.4798 61.3287 68.7604C61.7836 70.062 61.9865 70.7058 62.3364 72.0074L64.6317 71.8324Z" fill="#D0D1D2"/>
<path d="M39.8525 59.2784C50.0483 61.9235 54.9747 63.3371 64.4357 66.2762C74.0227 65.3384 78.8932 64.7856 88.7461 63.526C78.9492 60.384 73.8548 58.8935 63.3021 56.1084C53.8061 57.5709 49.1036 58.1937 39.8525 59.2784Z" fill="#56A3DA"/>
<path d="M64.4077 66.3111C64.4077 66.3111 61.1188 69.6981 64.1978 72.6092C54.8977 69.4672 50.0343 67.9766 39.9364 65.1425C39.9364 65.1425 36.6055 62.2314 39.8175 59.2504C50.0483 61.9305 54.9747 63.3371 64.4077 66.3111Z" fill="#276B8C"/>
<path d="M62.0705 63.0642C70.8807 62.0705 75.3663 61.4967 84.4634 60.1881C84.6875 58.3752 84.7903 56.5494 84.7713 54.7228C76.227 54.9467 71.9864 55.0237 63.582 55.1217C61.5946 56.1154 60.6079 56.5982 58.6136 57.5429C59.1332 59.1719 59.5424 60.8342 59.8382 62.5183L62.0705 63.0642Z" fill="white"/>
<path d="M62.6793 63.7639C72.1823 62.8822 77.0318 62.3644 86.8707 61.1398L86.1709 60.279C76.374 61.5666 71.5455 62.1195 62.0775 63.0782L62.6793 63.7639Z" fill="#D7BA6F"/>
<path d="M63.0782 62.9592C63.0782 62.9592 61.2377 60.566 63.8759 58.1097C72.1263 57.34 76.311 56.8991 84.7643 55.8984C84.7643 55.4226 84.7643 55.1986 84.7643 54.7088C74.9044 55.6325 70.006 56.0034 60.433 56.7032C60.2161 57.9908 60.0901 58.6416 59.7892 59.9152C60.2441 61.2097 60.447 61.8605 60.7969 63.1621L63.0782 62.9592Z" fill="#D0D1D2"/>
<path d="M38.306 50.4051C48.5017 53.0503 53.4282 54.4639 62.8892 57.4029C72.4762 56.4652 77.3397 55.9194 87.1996 54.6528C77.4027 51.5108 72.3083 50.0203 61.7556 47.2351C52.2596 48.6977 47.557 49.3205 38.306 50.4051Z" fill="#FFDE7F"/>
<path d="M62.8892 57.4029C62.8892 57.4029 59.6003 60.7899 62.6793 63.701C53.3792 60.559 48.5157 59.0614 38.4179 56.2343C38.4179 56.2343 35.087 53.3232 38.306 50.3422C48.4948 53.0573 53.4282 54.4639 62.8892 57.4029Z" fill="#D7BA6F"/>
<path d="M61.8186 54.8348C70.6288 53.8411 75.1144 53.2672 84.2115 51.9587C84.4354 50.1458 84.5382 48.32 84.5194 46.4934C75.9751 46.7173 71.7344 46.7943 63.3301 46.8992C61.3427 47.8929 60.349 48.3758 58.3546 49.3205C58.8752 50.9493 59.2844 52.6116 59.5793 54.2959L61.8186 54.8348Z" fill="white"/>
<path d="M62.4274 55.5345C71.9374 54.6528 76.7869 54.135 86.6188 52.9104L85.919 52.0496C76.1221 53.3372 71.2936 53.8901 61.8256 54.8487L62.4274 55.5345Z" fill="#5C9240"/>
<path d="M62.8262 54.7298C62.8262 54.7298 60.9858 52.3365 63.624 49.8803C71.8744 49.1106 76.0521 48.6697 84.5124 47.676C84.5124 47.2002 84.5124 46.9762 84.5124 46.4864C74.6455 47.4031 69.7751 47.795 60.1671 48.4458C59.9502 49.7334 59.8242 50.3772 59.5233 51.6578C59.9781 52.9523 60.1811 53.6031 60.531 54.9047L62.8262 54.7298Z" fill="#D0D1D2"/>
<path d="M38.054 42.1757C48.2498 44.8209 53.1763 46.2345 62.6373 49.1735C72.2243 48.2358 77.0948 47.69 86.9477 46.4234C77.1507 43.2814 72.0563 41.7909 61.5037 39.0057C52.0076 40.4683 47.3051 41.0911 38.054 42.1757Z" fill="#80C247"/>
<path d="M62.6373 49.2085C62.6373 49.2085 59.3483 52.5955 62.4274 55.5065C53.1273 52.3645 48.2638 50.874 38.166 48.0399C38.166 48.0399 34.835 45.1288 38.054 42.1477C48.2498 44.8069 53.2113 46.2065 62.6373 49.2085Z" fill="#5C9240"/>
<path d="M65.3385 46.9062C74.1487 45.9126 78.6343 45.3387 87.7314 44.0302C87.9553 42.2173 88.0582 40.3914 88.0393 38.5649C79.495 38.7888 75.2543 38.8658 66.85 38.9637C64.8626 39.9574 63.8689 40.4403 61.8815 41.385C62.4015 43.014 62.8106 44.6762 63.1062 46.3604L65.3385 46.9062Z" fill="white"/>
<path d="M65.9473 47.606C75.4503 46.7243 80.2998 46.2065 90.1387 44.9819L89.4389 44.1211C79.642 45.4087 74.8135 45.9615 65.3455 46.9202L65.9473 47.606Z" fill="#BE202E"/>
<path d="M66.3531 46.8363C66.3531 46.8363 64.5127 44.443 67.1439 41.9868C75.3943 41.224 79.579 40.7832 88.0323 39.7825C88.0323 39.3066 88.0323 39.0827 88.0323 38.5929C78.1654 39.5096 73.295 39.9015 63.687 40.5522C63.47 41.8398 63.3441 42.4836 63.0432 43.7642C63.498 45.0588 63.701 45.7096 64.0509 47.0112L66.3531 46.8363Z" fill="#D0D1D2"/>
<path d="M41.5739 34.3102C51.7697 36.9274 56.7102 38.3339 66.1572 41.308C75.7442 40.3703 80.6147 39.8175 90.4676 38.5579C80.6706 35.4159 75.5762 33.9253 65.0236 31.1402C55.5275 32.5678 50.825 33.1976 41.5739 34.3102Z" fill="#EE4037"/>
<path d="M66.1572 41.308C66.1572 41.308 62.8682 44.6949 65.9473 47.606C56.6472 44.499 51.8117 43.0015 41.6929 40.1744C41.6929 40.1744 38.3619 37.2633 41.5809 34.2822C51.7697 36.9274 56.7102 38.3339 66.1572 41.308Z" fill="#BE202E"/>
<path d="M169.557 43.5403L151.194 29.9366L149.494 31.938L168.213 45.8006L169.557 43.5403Z" fill="#E6E7E8"/>
<path d="M157.332 39.1527C160.774 41.6159 164.238 44.0511 167.555 46.6753L168.129 47.1302L169.018 46.0805C169.107 45.9761 169.174 45.8541 169.213 45.7225C169.253 45.5908 169.264 45.4524 169.247 45.316C169.23 45.1796 169.185 45.0483 169.114 44.9305C169.043 44.8127 168.948 44.711 168.836 44.632L150.642 31.1332L151.201 29.9226L169.585 43.5403L169.774 43.1624L150.999 29.2788L148.43 32.3018C149.13 32.9666 149.893 33.6034 150.642 34.2332C152.825 35.9267 155.071 37.5432 157.332 39.1527Z" fill="#F47E20"/>
<g style="mix-blend-mode:multiply" opacity="0.2">
<path d="M168.885 44.6739L150.614 31.1402L150.845 30.6434L169.158 44.2121L168.885 44.6739Z" fill="#231F20"/>
</g>
<path d="M149.081 67.8996L130.124 53.8551L149.669 30.8743L149.907 30.6014L150.754 29.6007L151.027 29.2858L151.474 29.6147L169.774 43.1694L169.508 43.4843L151.18 29.9296L150.334 30.9303L168.843 44.639C168.955 44.718 169.05 44.8197 169.121 44.9375C169.192 45.0553 169.237 45.1866 169.254 45.323C169.271 45.4594 169.26 45.5978 169.22 45.7295C169.181 45.8611 169.114 45.9831 169.025 46.0875L150.621 67.7247C150.431 67.9382 150.168 68.0741 149.884 68.1064C149.6 68.1386 149.314 68.065 149.081 67.8996V67.8996Z" fill="#EC1E24"/>
<path d="M166.009 49.6284L146.191 34.954L148.423 32.3298L168.234 47.0042L166.009 49.6284Z" fill="#F47E20"/>
<path d="M157.569 59.5443L137.745 44.8629L139.417 42.8895L159.249 57.5779L157.569 59.5443Z" fill="#F47E20"/>
<path d="M151.915 66.2412L132.09 51.5598L135.065 48.0539L154.896 62.7353L151.915 66.2412Z" fill="#F47E20"/>
<path d="M153.28 46.4164C153.537 46.1201 153.729 45.7731 153.843 45.3979C153.957 45.0227 153.992 44.6276 153.943 44.2383C153.895 43.8491 153.766 43.4742 153.564 43.1382C153.361 42.8022 153.09 42.5124 152.769 42.2877C152.105 41.802 151.284 41.5815 150.466 41.6695C149.648 41.7576 148.892 42.1477 148.346 42.7636C148.089 43.0598 147.897 43.4068 147.783 43.7821C147.669 44.1573 147.635 44.5523 147.683 44.9416C147.731 45.3309 147.86 45.7057 148.063 46.0418C148.265 46.3778 148.536 46.6676 148.857 46.8923C149.521 47.378 150.343 47.5984 151.161 47.5104C151.979 47.4224 152.734 47.0323 153.28 46.4164V46.4164Z" fill="white"/>
<path d="M158.843 50.5241C159.1 50.2278 159.292 49.8808 159.406 49.5056C159.521 49.1304 159.555 48.7353 159.507 48.346C159.459 47.9568 159.329 47.5819 159.127 47.2459C158.924 46.9099 158.654 46.6201 158.332 46.3954C157.668 45.9097 156.847 45.6892 156.029 45.7773C155.211 45.8653 154.455 46.2554 153.91 46.8713C153.653 47.1675 153.461 47.5145 153.346 47.8898C153.232 48.265 153.198 48.66 153.246 49.0493C153.294 49.4386 153.424 49.8134 153.626 50.1495C153.828 50.4855 154.099 50.7753 154.42 51C155.084 51.4857 155.906 51.7061 156.724 51.6181C157.542 51.5301 158.298 51.14 158.843 50.5241V50.5241Z" fill="white"/>
<path d="M155.057 48.4108C155.134 48.3218 155.192 48.2177 155.226 48.1051C155.26 47.9925 155.271 47.874 155.256 47.7572C155.241 47.6404 155.203 47.528 155.142 47.4272C155.081 47.3264 155 47.2395 154.903 47.1722C154.705 47.0264 154.46 46.9599 154.215 46.9858C153.97 47.0117 153.744 47.1281 153.581 47.3121C153.504 47.4011 153.446 47.5052 153.412 47.6178C153.378 47.7304 153.367 47.8489 153.382 47.9657C153.396 48.0825 153.435 48.1949 153.496 48.2957C153.557 48.3965 153.638 48.4834 153.735 48.5507C153.933 48.6965 154.178 48.763 154.423 48.7371C154.668 48.7112 154.894 48.5948 155.057 48.4108V48.4108Z" fill="black"/>
<path d="M149.396 44.7509C149.473 44.662 149.531 44.5579 149.565 44.4453C149.599 44.3327 149.609 44.2141 149.595 44.0973C149.58 43.9806 149.541 43.8681 149.481 43.7673C149.42 43.6666 149.339 43.5797 149.242 43.5123C149.044 43.3665 148.798 43.3001 148.554 43.326C148.309 43.3519 148.083 43.4682 147.919 43.6523C147.842 43.7412 147.785 43.8453 147.751 43.9579C147.716 44.0705 147.706 44.1891 147.721 44.3059C147.735 44.4226 147.774 44.5351 147.835 44.6359C147.896 44.7366 147.977 44.8235 148.073 44.8909C148.272 45.0367 148.517 45.1031 148.762 45.0772C149.007 45.0513 149.233 44.935 149.396 44.7509V44.7509Z" fill="black"/>
<g style="mix-blend-mode:multiply" opacity="0.2">
<path d="M150.649 31.1612C150.747 30.8743 151.348 29.5447 151.348 29.5447L150.992 29.2788L149.893 30.6084L130.117 53.8691L130.88 54.4359L150.656 31.1752L150.649 31.1612Z" fill="#231F20"/>
</g>
<path d="M162.923 39.5866L167.1 34.6811L167.471 37.6831L170.921 37.3123L166.639 42.3437" fill="#DB9E37"/>
<path d="M136.485 11.2874L165.358 13.3168L165.876 26.1788L146.408 24.4643L140.894 59.6842L158.388 58.9215L154.273 95.1211L149.018 95.534C149.018 95.534 154.798 77.2347 143.7 76.9618C132.601 76.6889 131.104 95.6599 131.104 95.6599L126.205 97.2274L136.485 11.2874Z" fill="#062A4E"/>
<path d="M165.113 21.7562L143.917 20.9164L137.465 66.4651L157.73 65.0305" stroke="#767EAD" stroke-width="0.83" stroke-miterlimit="10"/>
<path d="M69.5581 111.972L0 89.4949L0.783753 64.3938L69.2992 86.1219L69.5581 111.972Z" fill="#062A4E"/>
<path d="M165.358 13.3028L112.371 0L94.8902 1.09865L135.904 12.778L165.358 13.3028Z" fill="#636A95"/>
<path d="M69.3062 86.0939L69.5651 111.944L78.7252 109.572C79.1101 105.569 80.9156 96.7726 89.3759 96.1848C96.6116 95.6809 99.8726 100.439 101.209 103.749L126.401 97.2204L129.2 72.8121L69.3062 86.0939Z" fill="#062A4E"/>
<path d="M27.8782 87.561L27.6052 88.4087L21.7378 86.5195L21.9335 85.9116L27.382 81.4549L28.2242 81.7261L26.7963 83.0637L23.182 86.0489L27.8782 87.561ZM28.4807 81.8087L25.866 89.9293L24.8342 89.5971L27.4489 81.4764L28.4807 81.8087Z" fill="black"/>
<path d="M34.5486 87.5297L34.1499 88.7679C33.9356 89.4334 33.6954 89.9757 33.4291 90.3948C33.1629 90.8138 32.8733 91.1268 32.5604 91.3339C32.2475 91.5409 31.9127 91.6568 31.5559 91.6814C31.2041 91.7035 30.8311 91.6512 30.437 91.5243C30.1246 91.4237 29.8491 91.2919 29.6102 91.1288C29.3713 90.9657 29.1735 90.7645 29.0166 90.5252C28.8647 90.2834 28.7592 89.9991 28.7003 89.6724C28.6413 89.3456 28.6369 88.9707 28.6869 88.5477C28.7369 88.1247 28.8475 87.6474 29.0187 87.1157L29.4174 85.8775C29.6317 85.2119 29.8708 84.6734 30.1347 84.2618C30.4022 83.8514 30.6913 83.5464 31.0017 83.3468C31.3134 83.1434 31.6446 83.0326 31.9952 83.0142C32.3496 82.9969 32.722 83.0512 33.1124 83.1769C33.4285 83.2787 33.7059 83.4111 33.9448 83.5742C34.1885 83.7347 34.3876 83.9322 34.542 84.1666C34.6975 84.3972 34.8035 84.6735 34.8599 84.9953C34.9212 85.3146 34.9275 85.6839 34.8787 86.1032C34.8298 86.5225 34.7198 86.998 34.5486 87.5297ZM33.0587 88.6012L33.5669 87.0228C33.6842 86.6584 33.7649 86.3314 33.8088 86.0419C33.8577 85.7499 33.873 85.4921 33.8547 85.2687C33.8363 85.0453 33.7837 84.8519 33.6968 84.6885C33.6136 84.5263 33.4992 84.391 33.3535 84.2825C33.2128 84.1715 33.042 84.0837 32.8412 84.0191C32.5958 83.9401 32.3634 83.9165 32.1438 83.9484C31.9254 83.9766 31.7195 84.0683 31.5259 84.2234C31.336 84.3798 31.1561 84.6071 30.9862 84.9053C30.8163 85.2035 30.6577 85.5813 30.5105 86.0386L30.0023 87.617C29.8849 87.9814 29.8018 88.3096 29.7529 88.6017C29.7078 88.8949 29.695 89.1576 29.7147 89.3896C29.7355 89.6179 29.7864 89.8169 29.8672 89.9865C29.948 90.1562 30.0581 90.2984 30.1977 90.4131C30.3421 90.5252 30.5129 90.613 30.7099 90.6765C30.9628 90.7579 31.1996 90.7808 31.4203 90.7452C31.6411 90.7096 31.8476 90.6099 32.0399 90.4461C32.2371 90.2797 32.4193 90.045 32.5867 89.7419C32.7553 89.435 32.9126 89.0548 33.0587 88.6012Z" fill="black"/>
<path d="M40.7284 91.6986L40.4555 92.5464L34.5881 90.6571L34.7838 90.0492L40.2323 85.5925L41.0745 85.8637L39.6465 87.2014L36.0323 90.1865L40.7284 91.6986ZM41.331 85.9463L38.7163 94.067L37.6844 93.7347L40.2992 85.6141L41.331 85.9463Z" fill="black"/>
<path d="M64.9816 104.638C65.0935 102.84 64.1068 101.265 62.7843 101.139C61.4617 101.013 60.307 102.322 60.1951 104.12C60.0831 105.919 61.0698 107.493 62.3924 107.619C63.715 107.745 64.8766 106.43 64.9816 104.638Z" fill="#BE1E2D"/>
<path d="M62.7633 107.045C61.4407 106.891 60.461 105.317 60.566 103.546C60.5947 102.999 60.7352 102.463 60.9788 101.972C60.5116 102.583 60.2429 103.323 60.2091 104.092C60.0971 105.891 61.0838 107.465 62.4064 107.591C62.8694 107.612 63.3273 107.488 63.7171 107.238C64.1069 106.987 64.4094 106.621 64.5827 106.192C64.3792 106.479 64.1045 106.709 63.7856 106.859C63.4667 107.008 63.1145 107.073 62.7633 107.045V107.045Z" fill="#6D111E"/>
<path d="M69.5791 91.7132L129.046 77.5846" stroke="#062A4E" stroke-width="0.83" stroke-miterlimit="10"/>
<path d="M69.6141 98.501L128.843 84.5684" stroke="#062A4E" stroke-width="0.83" stroke-miterlimit="10"/>
<path d="M5.94113 85.6741C6.05309 83.8756 5.0664 82.3011 3.74382 82.1752C2.42124 82.0492 1.2666 83.3578 1.15463 85.1562C1.04267 86.9547 2.02936 88.5292 3.35194 88.6551C4.67453 88.7811 5.82917 87.4935 5.94113 85.6741Z" fill="#BE1E2D"/>
<path d="M3.71583 88.0813C2.39325 87.9273 1.41355 86.3528 1.51852 84.5824C1.54764 84.035 1.68812 83.4992 1.93139 83.0079C1.45798 83.6246 1.18669 84.3725 1.15463 85.1492C1.04267 86.9477 2.02936 88.5222 3.35194 88.6481C3.81493 88.6687 4.2729 88.5452 4.6627 88.2945C5.0525 88.0438 5.35493 87.6784 5.52826 87.2486C5.32294 87.5312 5.04839 87.7562 4.73098 87.902C4.41357 88.0479 4.06399 88.1096 3.71583 88.0813Z" fill="#6D111E"/>
</svg>
